<svg width="42" height="42" viewBox="0 0 42 42" fill="none" xmlns="http://www.w3.org/2000/svg">
<path d="M0 6C0 4.4087 0.632141 2.88258 1.75736 1.75736C2.88258 0.632141 4.4087 0 6 0H36C37.5913 0 39.1174 0.632141 40.2426 1.75736C41.3679 2.88258 42 4.4087 42 6V36C42 37.5913 41.3679 39.1174 40.2426 40.2426C39.1174 41.3679 37.5913 42 36 42H6C4.4087 42 2.88258 41.3679 1.75736 40.2426C0.632141 39.1174 0 37.5913 0 36V6ZM6 3C5.20435 3 4.44129 3.31607 3.87868 3.87868C3.31607 4.44129 3 5.20435 3 6V36C3 36.7956 3.31607 37.5587 3.87868 38.1213C4.44129 38.6839 5.20435 39 6 39H36C36.7956 39 37.5587 38.6839 38.1213 38.1213C38.6839 37.5587 39 36.7956 39 36V6C39 5.20435 38.6839 4.44129 38.1213 3.87868C37.5587 3.31607 36.7956 3 36 3H6ZM21 9C21.3978 9 21.7794 9.15804 22.0607 9.43934C22.342 9.72064 22.5 10.1022 22.5 10.5V19.5H31.5C31.8978 19.5 32.2794 19.658 32.5607 19.9393C32.842 20.2206 33 20.6022 33 21C33 21.3978 32.842 21.7794 32.5607 22.0607C32.2794 22.342 31.8978 22.5 31.5 22.5H22.5V31.5C22.5 31.8978 22.342 32.2794 22.0607 32.5607C21.7794 32.842 21.3978 33 21 33C20.6022 33 20.2206 32.842 19.9393 32.5607C19.658 32.2794 19.5 31.8978 19.5 31.5V22.5H10.5C10.1022 22.5 9.72064 22.342 9.43934 22.0607C9.15804 21.7794 9 21.3978 9 21C9 20.6022 9.15804 20.2206 9.43934 19.9393C9.72064 19.658 10.1022 19.5 10.5 19.5H19.5V10.5C19.5 10.1022 19.658 9.72064 19.9393 9.43934C20.2206 9.15804 20.6022 9 21 9Z" fill="#ADADAD"/>
</svg>
