<svg width="450" height="900" viewBox="0 0 450 900" fill="none" xmlns="http://www.w3.org/2000/svg">
<path d="M450 0H0V900H450V0Z" fill="white"/>
<path d="M450 315C409.3 302.1 368.6 289.3 339.4 267C310.2 244.7 292.5 213 260.5 189.5C228.5 166 182.3 150.8 159 120.5C135.7 90.3 135.3 45.2 135 0H450V315Z" fill="#E4AEFF"/>
<path d="M450 157.5C429.7 151.1 409.3 144.6 394.7 133.5C380.1 122.4 371.2 106.5 355.2 94.8C339.3 83 316.1 75.4 304.5 60.3C292.8 45.2 292.7 22.6 292.5 0H450V157.5Z" fill="#BF57FF"/>
<path d="M0 585C35.9 607.9 71.8 630.8 103.7 649.6C135.6 668.5 163.6 683.4 197.3 702.7C231 722 270.4 745.8 291 779.5C311.6 813.1 313.3 856.5 315 900H0V585Z" fill="#E4AEFF"/>
<path d="M0 742.5C17.9 753.9 35.9 765.4 51.9 774.8C67.8 784.3 81.8 791.7 98.6 801.4C115.5 811 135.2 822.9 145.5 839.7C155.8 856.5 156.7 878.3 157.5 900H0V742.5Z" fill="#BF57FF"/>
</svg>
