<svg width="52" height="54" viewBox="0 0 52 54" fill="none" xmlns="http://www.w3.org/2000/svg">
<path d="M46.625 28.425V25.5562L50.225 22.4063C50.8886 21.8213 51.3241 21.0207 51.4545 20.1458C51.5848 19.2708 51.4017 18.378 50.9375 17.625L46.5125 10.125C46.1837 9.55549 45.7109 9.08246 45.1416 8.75337C44.5722 8.42427 43.9263 8.25067 43.2687 8.25C42.8612 8.24688 42.4559 8.31021 42.0687 8.4375L37.5125 9.975C36.7258 9.45226 35.9053 8.98248 35.0562 8.56875L34.1 3.84375C33.9285 2.98051 33.4589 2.20508 32.7733 1.65319C32.0878 1.10131 31.2299 0.808136 30.35 0.824999H21.575C20.695 0.808136 19.8372 1.10131 19.1516 1.65319C18.4661 2.20508 17.9964 2.98051 17.825 3.84375L16.8687 8.56875C16.0136 8.98238 15.1868 9.45215 14.3937 9.975L9.93124 8.3625C9.53992 8.26054 9.13468 8.22255 8.73124 8.25C8.07363 8.25067 7.42775 8.42427 6.85842 8.75337C6.28908 9.08246 5.81629 9.55549 5.48749 10.125L1.06249 17.625C0.624836 18.3769 0.462207 19.2575 0.602453 20.1161C0.742698 20.9746 1.17709 21.7577 1.83124 22.3313L5.37499 25.575V28.4438L1.83124 31.5938C1.15861 32.1712 0.712339 32.9684 0.571608 33.8437C0.430876 34.7189 0.60479 35.6158 1.06249 36.375L5.48749 43.875C5.81629 44.4445 6.28908 44.9175 6.85842 45.2466C7.42775 45.5757 8.07363 45.7493 8.73124 45.75C9.13877 45.7531 9.54408 45.6898 9.93124 45.5625L14.4875 44.025C15.2741 44.5477 16.0947 45.0175 16.9437 45.4313L17.9 50.1563C18.0714 51.0195 18.5411 51.7949 19.2266 52.3468C19.9122 52.8987 20.77 53.1919 21.65 53.175H30.5C31.3799 53.1919 32.2378 52.8987 32.9233 52.3468C33.6089 51.7949 34.0785 51.0195 34.25 50.1563L35.2062 45.4313C36.0614 45.0176 36.8882 44.5478 37.6812 44.025L42.2187 45.5625C42.6059 45.6898 43.0112 45.7531 43.4187 45.75C44.0763 45.7493 44.7222 45.5757 45.2916 45.2466C45.8609 44.9175 46.3337 44.4445 46.6625 43.875L50.9375 36.375C51.3751 35.6231 51.5378 34.7425 51.3975 33.8839C51.2573 33.0254 50.8229 32.2423 50.1687 31.6688L46.625 28.425ZM43.2687 42L36.8375 39.825C35.332 41.1002 33.6114 42.097 31.7562 42.7688L30.425 49.5H21.575L20.2437 42.8438C18.4033 42.153 16.692 41.1579 15.1812 39.9L8.73124 42L4.30623 34.5L9.40624 30C9.05954 28.0591 9.05954 26.0721 9.40624 24.1313L4.30623 19.5L8.73124 12L15.1625 14.175C16.668 12.8998 18.3886 11.903 20.2437 11.2313L21.575 4.5H30.425L31.7562 11.1563C33.5967 11.847 35.308 12.8421 36.8187 14.1L43.2687 12L47.6937 19.5L42.5937 24C42.9404 25.9409 42.9404 27.9279 42.5937 29.8688L47.6937 34.5L43.2687 42Z" fill="#ADADAD"/>
<path d="M26 38.25C23.775 38.25 21.5999 37.5902 19.7498 36.354C17.8998 35.1179 16.4578 33.3609 15.6064 31.3052C14.7549 29.2495 14.5321 26.9875 14.9662 24.8052C15.4003 22.623 16.4717 20.6184 18.0451 19.0451C19.6184 17.4717 21.623 16.4003 23.8052 15.9662C25.9875 15.5321 28.2495 15.7549 30.3052 16.6064C32.3609 17.4578 34.1179 18.8998 35.354 20.7498C36.5902 22.5999 37.25 24.775 37.25 27C37.265 28.4816 36.9843 29.9512 36.4243 31.3229C35.8643 32.6946 35.0361 33.9408 33.9885 34.9885C32.9408 36.0361 31.6946 36.8643 30.3229 37.4243C28.9512 37.9843 27.4816 38.265 26 38.25V38.25ZM26 19.5C25.0088 19.4769 24.0232 19.6551 23.1028 20.0239C22.1824 20.3926 21.3464 20.9442 20.6453 21.6453C19.9442 22.3464 19.3926 23.1824 19.0239 24.1028C18.6551 25.0232 18.4769 26.0088 18.5 27C18.4769 27.9912 18.6551 28.9768 19.0239 29.8972C19.3926 30.8176 19.9442 31.6536 20.6453 32.3547C21.3464 33.0558 22.1824 33.6074 23.1028 33.9761C24.0232 34.3449 25.0088 34.5231 26 34.5C26.9912 34.5231 27.9768 34.3449 28.8972 33.9761C29.8176 33.6074 30.6536 33.0558 31.3547 32.3547C32.0558 31.6536 32.6074 30.8176 32.9761 29.8972C33.3449 28.9768 33.5231 27.9912 33.5 27C33.5231 26.0088 33.3449 25.0232 32.9761 24.1028C32.6074 23.1824 32.0558 22.3464 31.3547 21.6453C30.6536 20.9442 29.8176 20.3926 28.8972 20.0239C27.9768 19.6551 26.9912 19.4769 26 19.5Z" fill="#ADADAD"/>
</svg>
