<svg width="50" height="50" viewBox="0 0 50 50" fill="none" xmlns="http://www.w3.org/2000/svg">
<path d="M25 0C18.099 0 12.207 2.44141 7.32422 7.32422C2.44141 12.207 0 18.099 0 25C0 31.901 2.44141 37.793 7.32422 42.6758C12.207 47.5586 18.099 50 25 50C31.901 50 37.793 47.5586 42.6758 42.6758C47.5586 37.793 50 31.901 50 25C50 18.099 47.5586 12.207 42.6758 7.32422C37.793 2.44141 31.901 0 25 0ZM10.6445 32.3242C12.0117 35.7747 12.6953 38.8997 12.6953 41.6992C10.0911 39.8763 8.02409 37.4837 6.49414 34.5215C4.96419 31.5592 4.19922 28.3854 4.19922 25C4.19922 18.2943 6.83594 12.8906 12.1094 8.78906C13.2812 9.70052 14.3555 10.8887 15.332 12.3535C16.3086 13.8184 16.7643 15.2018 16.6992 16.5039C16.4388 18.5221 15.1042 20.5078 12.6953 22.4609C11.4583 23.763 10.6283 25.3092 10.2051 27.0996C9.7819 28.89 9.92839 30.6315 10.6445 32.3242ZM45.8008 25C45.8008 30.7292 43.7663 35.6283 39.6973 39.6973C35.6283 43.7663 30.7292 45.8008 25 45.8008C22.1354 45.8008 19.4336 45.2474 16.8945 44.1406C17.2201 39.9089 16.3737 35.4818 14.3555 30.8594C13.6393 28.6458 14.0625 26.888 15.625 25.5859C18.8802 22.3307 20.6055 19.4336 20.8008 16.8945C21.1914 13.3789 19.5312 9.83073 15.8203 6.25C18.3594 4.88281 21.4193 4.19922 25 4.19922C26.6927 4.19922 28.2878 4.39453 29.7852 4.78516L25.5859 8.98438L24.1211 10.4492L30.1758 16.5039L44.8242 18.5547C45.4753 20.8333 45.8008 22.9818 45.8008 25ZM32.3242 12.6953L29.9805 10.4492L34.1797 6.25C37.7604 7.94271 40.5924 10.5794 42.6758 14.1602L32.3242 12.6953ZM26.2695 21.4844L24.6094 23.9258C23.3073 26.0091 23.1445 28.0924 24.1211 30.1758L25 32.1289L26.4648 39.1602C26.6602 40.6576 27.5716 41.6341 29.1992 42.0898C29.4596 42.2201 29.7852 42.2852 30.1758 42.2852C31.1523 42.2852 32.0638 41.9271 32.9102 41.2109L35.2539 38.9648L35.4492 38.5742C36.4258 34.9284 37.5326 32.487 38.7695 31.25C40.5273 30.013 41.0156 27.7995 40.2344 24.6094C39.7786 22.8516 38.5742 21.582 36.6211 20.8008L31.6406 18.75H31.25C28.9714 18.75 27.3112 19.6615 26.2695 21.4844ZM28.125 26.2695L29.7852 23.7305C30.0456 23.2096 30.4688 22.9492 31.0547 22.9492L35.2539 24.4141C35.7747 24.6745 36.0352 24.9349 36.0352 25.1953C36.1654 25.651 36.2305 26.4323 36.2305 27.5391C34.4727 28.8411 32.8776 31.8034 31.4453 36.4258L30.3711 37.5L29.1992 30.8594L27.9297 28.3203C27.5391 27.7344 27.6042 27.0508 28.125 26.2695Z" fill="white"/>
</svg>
